Patient4_TMGait_0pt7_02_left_23_EMG.mot
version=1
nRows=16
nColumns=33
inDegrees=no
endheader
time	1LAddLong	2LGlutMax	3LGlutMed	4LIliopsoas	5LSemiMemb	6LBicFemLong	7LRecFem	8LVastMed	9LVastLat	10LGasMed	11LTibAnt	12lTibPost	13LPeroneusLong	14LSol	15LExtDigLong	16LFlexDigLong	17RAddLong	18RGlutMax	19RGlutMed	20RIliopsoas	21RSemiMemb	22RBicFemLong	23RRecFem	24RVastMed	25RVastLat	26RGasMed	27RTibAnt	28RTibPost	29RPeroneusLong	30RSol	31RExtDigLong	32RFlexDigLong
26.522	0.031586	0.97656	-0.10696	0.017548	-0.065765	-0.045624	0.78354	-0.004272	-0.72693	0.56808	0.015106	0.094299	-0.14069	-0.30975	-0.01297	-0.22781	-0.000916	-0.22995	-0.0354	-0.00412	-0.074615	-0.062714	0.93292	0.06546	-0.063019	-0.014648	-0.027161	-0.001068	-0.055695	-0.016327	-0.002594	-0.014191
26.523	0.032806	0.89416	-0.15472	0.011139	-0.066071	-0.061188	0.74814	0	-0.97092	-0.784	0.00946	0.04303	-0.03891	-0.24155	-0.031738	-0.098724	-0.018311	-0.24948	-0.044861	-0.002136	-0.033264	0.1593	0.93216	0.03418	-0.060272	-0.007782	0.21393	0.007935	-0.064545	-0.030823	0.00351	-0.015259
26.524	0.032349	0.76935	-0.085449	0.05127	-0.029297	-0.14923	0.76797	-0.009003	-0.84793	-1.225	0.002899	0.025024	-0.034332	-0.34637	-0.045929	0.027924	0.016327	-0.27679	-0.050812	-0.014496	-0.004883	0.23575	0.90164	-0.019226	-0.059052	-0.009766	-0.19134	-0.018616	-0.022583	-0.065918	-0.000916	-0.019379
26.525	0.02533	0.77225	-0.03006	0.041046	-0.021057	-0.20187	0.82459	-0.001831	-0.72617	-1.1938	0.013428	0.06485	-0.11795	-0.40924	-0.032654	0.01709	0.070343	-0.32516	-0.023651	-0.023041	-0.016327	0.29022	0.93155	-0.07431	-0.062714	0.007324	-0.9314	-0.000916	0.1004	-0.1471	0.000153	-0.00824
26.526	0.009613	0.7547	-0.018311	0.011139	-0.036469	-0.26337	0.77606	0.021057	-0.65781	-0.99762	0.025177	0.10269	0.004272	-0.32852	-0.000763	-0.015564	0.032654	-0.30548	0.035095	-0.055695	-0.048828	0.18021	0.91995	-0.1033	-0.083313	0.017853	-0.83527	-0.010223	0.15228	-0.26077	0.000153	-0.000763
26.527	0.002899	0.6311	0.076141	0.005341	-0.067596	-0.25726	0.61569	0.031281	-0.49423	-0.86578	0.047455	0.10696	0.49911	-0.29739	0.011597	-0.018768	-0.000916	-0.29358	0.078735	-0.10361	-0.09491	0.082397	0.93536	-0.13794	-0.087128	0.022888	0.016479	-0.011139	0.007324	-0.27939	0	0.002594
26.528	0.018311	0.51956	-0.047607	0.021667	-0.093842	-0.24414	0.37476	0.01709	-0.35172	-0.64056	0.050812	0.086212	0.62927	0.074463	0.029755	-0.049896	-0.053101	-0.26627	0.080719	-0.10254	-0.13473	0.016632	0.89722	-0.085297	-0.076294	0.015411	0.56412	-0.009613	-0.1387	-0.18723	-0.001831	-0.002136
26.529	0.016479	0.45059	-0.023193	-0.011444	-0.11688	-0.017853	0.080109	0.014954	-0.23361	-0.47272	0.028534	0.046844	-0.028229	0.48218	-0.0914	-0.051727	-0.082397	-0.27542	0.030823	0.028839	-0.13214	-0.019684	0.92621	-0.11307	-0.086517	0.007935	-0.12909	-0.010071	-0.070496	-0.03479	-0.003662	-0.009155
26.53	0.016022	0.4538	-0.023499	-0.003357	-0.11871	0.14038	-0.035858	-0.015106	-0.075073	-0.40924	-0.015411	0.019684	-0.47928	0.85297	-0.11139	-0.06134	-0.063324	-0.29999	-0.023499	0.18051	-0.10574	-0.058136	0.88898	-0.16068	-0.092163	0.000153	-0.27039	-0.015411	0.091705	0.039978	0.004425	-0.004272
26.531	0.016632	0.50903	0.13168	-0.009003	-0.11932	0.27313	0.028992	-0.027618	-0.000305	-0.2594	-0.007172	0.010071	-0.045929	0.87967	-0.087585	-0.034332	-0.046997	-0.24628	-0.005493	0.15213	-0.096741	-0.040436	0.89691	-0.13504	-0.091248	0.002441	0.019989	-0.015411	0.070953	0.032959	-0.000763	-0.002747
26.532	0.007782	0.44784	0.15732	-0.011444	-0.14191	0.36301	-0.054474	-0.020752	-0.024872	-0.21103	-0.004578	-0.000305	0.26291	0.5394	-0.072479	0	-0.028229	-0.23911	-0.14008	0.12634	-0.11353	-0.011139	0.87784	-0.17151	-0.063171	0.002747	0.44968	-0.010681	-0.035706	0.006256	-0.00061	-0.009155
26.533	0.015411	0.2858	-0.072632	0.01709	-0.1326	0.47302	-0.17838	-0.009766	-0.045624	-0.22415	-0.022583	-0.005341	0.47226	0.11475	-0.021362	0.011139	-0.001526	-0.26566	-0.24948	0.049133	-0.096436	0.061493	0.85678	-0.20676	-0.083771	0.001068	1.0585	-0.015411	-0.088806	0.018463	0.000153	-0.013123
26.534	0.015564	0.24429	-0.14999	0.017548	-0.16754	0.41901	-0.22995	-0.005798	-0.049896	-0.20477	-0.033264	-0.015106	0.089264	0.29678	0.006409	0.005035	0.016174	-0.20737	0.041809	-0.061798	-0.13489	0.005646	0.85831	-0.20554	-0.046387	-0.007477	1.1183	-0.010376	-0.13504	0.068359	-0.000458	-0.013733
26.535	0.012207	0.26306	-0.05249	0.013123	-0.11444	0.19684	-0.28885	0.000153	-0.034332	-0.099945	-0.022888	-0.027618	0.040894	0.2095	-0.001678	-0.015411	0.057068	-0.15472	0.22354	-0.077209	-0.14206	-0.075531	0.8638	-0.2124	-0.058899	-0.007629	1.0403	-0.011139	-0.044708	0.09201	-0.001984	-0.013885
26.536	0.012817	0.29694	0.076294	0.011749	-0.054321	0.12116	-0.33707	0.00061	-0.023346	0.021515	0.026855	-0.029449	-0.17197	0.097809	0.094299	-0.020599	0.12894	-0.10407	-0.15503	-0.022888	-0.13626	-0.2005	0.85464	-0.2449	-0.062866	-0.003357	0.67535	-0.015411	0.10925	0.042877	-0.000916	-0.010223
26.537	0.011292	0.34134	0.063934	0.011444	-0.12573	0.10208	-0.33707	-0.001068	0.020752	0.041046	0.069427	-0.036011	-0.38666	0.025177	0.12268	-0.027313	0.13306	-0.068817	-0.48889	0.009003	-0.15595	-0.25314	0.84946	-0.26352	-0.057983	0.007324	-1.0147	-0.009613	0.25497	0.14297	0.000458	-0.011139
